<svg width="103" height="32" viewBox="0 0 103 32" fill="none" xmlns="http://www.w3.org/2000/svg">
<path d="M16.6709 0.00344907C17.5612 -0.0434849 18.3427 0.390299 18.9095 1.19955C23.4783 7.73475 28.0456 14.27 32.5986 20.8151C33.539 22.1677 33.2384 23.7862 31.9531 24.6765C30.6878 25.5512 28.9946 25.2027 28.027 23.8232C24.8781 19.3317 21.7435 14.8289 18.6032 10.3303C18.546 10.245 18.4887 10.1611 18.4286 10.0772C17.1834 8.32783 15.9524 8.32498 14.7301 10.0743C11.5583 14.6141 8.38506 19.1525 5.22329 23.6994C4.70086 24.4504 4.06392 25.0079 3.12355 25.1074C1.96991 25.2312 1.04385 24.8273 0.435541 23.8274C-0.187081 22.8034 -0.134123 21.7751 0.542889 20.798C2.06295 18.6078 3.59732 16.4275 5.12739 14.2444C8.14317 9.94065 11.1661 5.63979 14.1733 1.3304C14.7558 0.494123 15.4901 -0.0136178 16.6709 0.00344907Z" fill="#FF008C"/>
<path d="M16.5601 25.3454C18.4409 25.3411 19.9166 26.7676 19.9338 28.608C19.9524 30.4612 18.408 32.0186 16.5702 32.0001C15.685 31.9896 14.8398 31.6328 14.2176 31.0072C13.5955 30.3815 13.2466 29.5374 13.2466 28.6578C13.2386 28.2222 13.3186 27.7895 13.482 27.3852C13.6454 26.9809 13.8888 26.6133 14.1978 26.3043C14.5068 25.9952 14.8752 25.751 15.2809 25.586C15.6867 25.4211 16.1217 25.3388 16.5601 25.344V25.3454Z" fill="#FF008C"/>
<path d="M95.6797 14.4082C97.7586 14.3656 99.3342 15.4692 99.7491 17.2872H91.9936C92.2866 15.6697 93.8576 14.4461 95.6797 14.4082ZM102.944 20.0913C103.422 15.6328 100.862 12.1105 96.914 11.7186C92.3331 11.2658 89.1195 13.8786 88.7605 18.3491C88.4433 22.3094 91.2839 25.6903 95.1775 25.9833C98.7994 26.2541 102.435 24.0331 102.587 21.4277C101.617 21.4277 100.647 21.4166 99.6774 21.4407C99.5333 21.4444 99.3482 21.5811 99.2561 21.7096C98.205 23.1791 96.7243 23.4629 95.0686 23.181C93.4614 22.9065 92.4782 21.8935 91.962 20.3953C91.9332 20.3122 91.949 20.2142 91.9434 20.0904L102.944 20.0913Z" fill="white"/>
<path d="M48.0157 14.509C51.0238 13.8749 53.3389 15.8556 53.2133 18.9758C53.1974 19.4571 53.1241 19.9349 52.9947 20.3991C52.432 22.3474 50.781 23.4426 48.7292 23.2661C46.6401 23.0858 45.1296 21.6422 44.9203 19.62C44.8905 19.339 44.8831 19.0562 44.8728 18.8917C44.9073 16.5857 46.1462 14.9027 48.0157 14.509ZM56.0642 11.9211H53.1147V13.0625C53.0022 13.0237 52.9501 13.0191 52.9157 12.9923C50.9159 11.4396 48.6817 11.361 46.3917 12.0875C43.6423 12.9599 41.8955 15.5691 41.8657 18.729C41.8388 21.5387 42.914 23.8548 45.4532 25.1866C47.9785 26.5101 50.5457 26.3696 52.9408 24.6903C52.9733 24.6681 53.0264 24.6737 53.1259 24.658V25.7781H56.0651L56.0642 11.9211Z" fill="white"/>
<path d="M82.9336 14.6117H75.6785V11.9277H87.0271C87.0271 12.7124 87.0457 13.4878 87.0122 14.2614C87.0057 14.4296 86.8308 14.6052 86.7043 14.7531C84.4813 17.3484 82.2518 19.9408 80.026 22.5352C79.9181 22.659 79.8176 22.7893 79.6521 22.9936H86.9926V25.7626H75.5492C75.5492 24.9724 75.5334 24.1951 75.5623 23.4187C75.5679 23.2644 75.7232 23.1017 75.8376 22.9659C78.0978 20.3142 80.3636 17.6654 82.6257 15.0156C82.7094 14.9176 82.7838 14.8104 82.9336 14.6117Z" fill="white"/>
<path d="M62.4475 25.8894H59.498V12.0204H62.4466V13.513C63.2288 13.0435 63.9627 12.5315 64.757 12.147C65.5839 11.7468 66.5029 11.7496 67.4544 11.8124V14.6591C67.3028 14.6701 67.1586 14.6886 67.0135 14.6905C64.7049 14.7173 63.1014 16.0029 62.614 18.2691C62.4968 18.8163 62.4605 19.3884 62.4549 19.9503C62.4354 21.7452 62.4475 23.54 62.4475 25.3349V25.8894Z" fill="white"/>
<path d="M69.9629 11.8945H72.8751V25.7765H69.9638L69.9629 11.8945Z" fill="white"/>
<path d="M73.4683 8.04153C73.4711 9.19682 72.5754 10.1118 71.4341 10.122C71.1585 10.1249 70.8851 10.0734 70.6297 9.97039C70.3743 9.86739 70.142 9.71497 69.9464 9.52199C69.7508 9.32901 69.5958 9.09932 69.4903 8.84628C69.3848 8.59323 69.331 8.32188 69.332 8.04799C69.3323 7.77815 69.3861 7.511 69.4903 7.26181C69.5945 7.01262 69.7471 6.78628 69.9394 6.59573C70.1316 6.40518 70.3598 6.25415 70.6109 6.15128C70.8619 6.04841 71.1309 5.99571 71.4025 5.9962C71.6739 5.99349 71.9432 6.0445 72.1946 6.14623C72.4459 6.24797 72.6744 6.39841 72.8667 6.58878C73.059 6.77915 73.2112 7.00564 73.3145 7.25505C73.4178 7.50447 73.4701 7.77182 73.4683 8.04153Z" fill="white"/>
</svg>
